<?xml version="1.0" standalone="no"?> <!DOCTYPE svg PUBLIC "-//W3C//DTD SVG 20010904//EN" "http://www.w3.org/TR/2001/REC-SVG-20010904/DTD/svg10.dtd"> <svg version="1.0" xmlns="http://www.w3.org/2000/svg" width="1800.000000pt" height="1476.000000pt" viewBox="0 0 1800.000000 1476.000000" preserveAspectRatio="xMidYMid meet"> <g transform="translate(0.000000,1476.000000) scale(0.100000,-0.100000)" fill="#3578f0" stroke="none"> <path d="M9020 14230 c-93 -15 -154 -27 -190 -40 -35 -13 -152 -65 -180 -81 -8 -5 -22 -12 -30 -16 -82 -36 -293 -243 -357 -348 -25 -41 -83 -166 -83 -178 0 -7 -4 -17 -10 -23 -5 -5 -21 -48 -36 -94 -32 -108 -42 -276 -24 -427 15 -128 26 -161 126 -369 36 -75 44 -134 19 -154 -8 -7 -15 -18 -15 -25 0 -7 -26 -41 -58 -76 -31 -35 -82 -93 -112 -129 -54 -64 -110 -127 -140 -159 -9 -9 -32 -36 -52 -61 -19 -25 -46 -57 -59 -71 -211 -229 -300 -331 -374 -429 -46 -61 -113 -143 -162 -200 -12 -14 -32 -36 -43 -50 -12 -14 -43 -52 -69 -85 -76 -99 -78 -100 -147 -99 -35 1 -71 8 -85 17 -58 36 -189 60 -363 65 -224 6 -264 -2 -443 -84 -74 -34 -122 -65 -225 -143 -65 -49 -253 -258 -274 -305 -8 -17 -18 -38 -23 -46 -5 -8 -17 -35 -26 -60 -10 -25 -23 -58 -30 -75 -47 -114 -54 -157 -54 -370 0 -138 3 -189 15 -220 9 -22 19 -56 24 -75 9 -41 28 -82 75 -165 19 -33 37 -67 41 -75 13 -26 91 -123 141 -175 70 -73 197 -166 278 -204 39 -18 79 -37 90 -43 43 -24 191 -55 304 -65 75 -6 251 10 306 29 17 6 46 14 65 18 197 46 458 235 571 415 154 245 213 483 178 717 -28 185 -72 313 -158 458 -33 55 -41 78 -34 97 7 19 89 130 108 148 7 6 27 30 45 55 19 25 51 63 71 85 60 67 141 157 199 224 30 34 65 74 77 87 13 14 49 57 80 97 62 78 170 206 188 222 6 6 67 75 135 155 68 80 130 150 136 155 6 6 33 39 60 75 27 36 64 80 82 98 37 38 33 38 162 -15 47 -19 103 -39 125 -43 22 -5 54 -14 70 -21 41 -17 379 -17 420 0 17 7 48 16 70 21 63 13 169 56 220 90 17 11 37 23 45 27 22 10 134 96 139 106 2 4 15 13 28 18 32 12 74 -9 182 -89 81 -61 181 -131 209 -147 10 -5 58 -40 108 -76 145 -106 251 -181 389 -274 71 -49 138 -97 149 -107 11 -10 38 -27 60 -39 52 -27 152 -103 194 -147 37 -40 42 -87 18 -181 -38 -152 -45 -272 -25 -430 24 -189 61 -286 177 -459 36 -54 42 -71 42 -116 0 -44 -5 -57 -28 -82 -16 -16 -34 -39 -41 -52 -7 -12 -48 -67 -92 -121 -43 -55 -79 -102 -79 -105 0 -11 -100 -152 -149 -211 -28 -33 -70 -89 -95 -126 -25 -36 -59 -81 -76 -100 -17 -18 -52 -65 -78 -104 -55 -81 -140 -196 -156 -210 -12 -10 -105 -134 -146 -195 -13 -19 -42 -54 -64 -78 -47 -50 -96 -120 -96 -137 0 -6 11 -18 25 -25 20 -11 47 -11 147 -2 68 7 163 12 211 12 59 0 98 5 117 15 25 13 120 123 120 139 0 5 132 187 166 229 8 10 32 42 52 70 20 29 39 54 43 57 9 7 415 554 479 644 30 43 68 91 85 108 35 35 54 34 159 -6 38 -14 77 -26 86 -26 10 0 31 -7 46 -15 67 -34 331 -13 506 41 42 13 83 24 91 24 16 0 117 -103 117 -119 0 -11 194 -304 240 -361 17 -21 30 -41 30 -45 0 -4 12 -24 28 -44 31 -42 49 -70 59 -91 6 -14 70 -98 83 -110 3 -3 21 -30 40 -60 19 -30 53 -80 75 -111 22 -32 56 -83 75 -115 19 -32 67 -101 105 -154 39 -53 75 -104 80 -113 37 -60 222 -329 280 -407 72 -97 195 -291 195 -308 0 -12 -79 -88 -145 -139 -134 -105 -327 -336 -410 -490 -14 -26 -34 -61 -44 -78 -33 -52 -91 -171 -91 -186 0 -8 -5 -20 -10 -25 -19 -19 -110 -284 -110 -319 0 -19 -10 -74 -45 -235 -10 -44 -16 -167 -20 -375 -5 -297 2 -462 24 -550 11 -43 30 -143 41 -215 16 -101 41 -180 91 -285 16 -33 29 -69 29 -80 0 -12 7 -30 15 -41 8 -12 29 -50 47 -85 19 -35 46 -83 61 -106 15 -24 27 -45 27 -48 0 -22 181 -237 317 -377 90 -92 163 -173 163 -179 0 -18 -83 -118 -173 -211 -47 -48 -118 -125 -158 -170 -39 -46 -107 -121 -149 -168 -42 -47 -108 -121 -146 -165 -38 -44 -71 -82 -75 -85 -5 -4 -45 -50 -169 -194 -14 -16 -32 -36 -41 -45 -8 -9 -57 -66 -108 -128 -51 -61 -103 -119 -117 -127 -30 -20 -98 -21 -114 -1 -7 8 -18 15 -26 15 -14 0 -68 22 -116 46 -14 8 -36 14 -48 14 -11 0 -33 6 -48 14 -18 9 -82 15 -202 18 -188 5 -294 -2 -350 -22 -84 -31 -144 -60 -205 -99 -80 -51 -110 -63 -154 -64 -43 -2 -52 3 -131 67 -108 88 -139 114 -225 194 -38 36 -90 81 -115 101 -25 19 -61 49 -81 66 -19 16 -57 48 -84 70 -44 36 -79 65 -165 138 -14 12 -61 52 -105 90 -112 96 -114 98 -175 146 -81 63 -135 109 -208 174 -91 81 -161 108 -180 70 -17 -32 -23 -199 -12 -318 9 -95 16 -125 36 -156 40 -64 130 -149 329 -309 96 -77 306 -256 359 -305 6 -6 36 -30 66 -54 104 -82 273 -231 338 -299 55 -58 55 -57 -10 -200 -15 -34 -28 -72 -28 -85 0 -12 -7 -58 -15 -102 -20 -110 -18 -210 5 -340 23 -132 31 -155 84 -265 96 -199 238 -361 400 -458 47 -29 91 -52 96 -52 5 0 26 -7 47 -16 185 -81 221 -87 453 -82 158 4 195 8 250 27 89 31 228 98 271 133 20 15 40 28 44 28 9 0 90 66 153 125 65 60 171 203 199 265 11 25 27 62 36 83 9 21 17 44 17 52 0 8 6 29 14 47 25 59 46 210 46 333 0 98 -5 137 -26 210 -14 50 -28 101 -31 115 -3 14 -12 34 -19 45 -8 11 -14 27 -14 37 0 9 -13 39 -29 66 -16 27 -34 65 -41 84 -15 42 -15 42 82 150 35 40 98 111 139 158 40 47 85 97 99 111 87 92 148 159 245 269 61 69 113 127 116 130 3 3 39 43 79 90 40 47 107 121 149 165 43 44 117 125 165 179 48 54 110 121 137 149 55 56 53 56 179 14 112 -38 184 -57 211 -57 13 0 46 -7 73 -15 72 -22 529 -21 624 1 226 52 407 112 453 151 8 7 20 13 25 13 6 0 41 20 78 45 38 25 71 45 74 45 12 0 142 113 201 174 36 36 73 66 82 66 21 0 57 -48 65 -87 3 -15 -2 -72 -10 -125 -23 -143 -22 -174 10 -195 24 -16 73 -17 571 -18 528 0 545 1 559 19 12 17 14 379 13 2560 -1 1398 -4 2695 -8 2883 -6 339 -6 343 -29 365 l-23 23 -553 0 c-589 0 -597 -1 -612 -48 -3 -11 -7 -428 -8 -927 -1 -1027 3 -978 -76 -909 -37 33 -172 135 -205 156 -11 7 -71 38 -133 69 -62 31 -115 61 -118 65 -3 5 -18 9 -34 9 -16 0 -47 6 -67 14 -21 7 -74 22 -118 32 -44 9 -89 24 -100 31 -29 20 -601 19 -647 -1 -18 -8 -69 -22 -113 -31 -44 -9 -93 -21 -110 -27 -46 -17 -153 -22 -170 -8 -18 15 -122 170 -141 210 -4 8 -19 31 -33 50 -14 19 -30 43 -36 52 -21 35 -92 136 -163 230 -40 54 -88 123 -107 155 -18 32 -44 69 -57 84 -13 14 -27 32 -33 41 -9 15 -93 137 -135 197 -26 38 -214 324 -220 336 -12 25 -67 105 -107 157 -23 31 -43 60 -43 63 0 4 -34 51 -75 106 -41 54 -75 101 -75 104 0 4 -19 32 -43 63 -68 89 -137 209 -137 237 0 9 19 42 43 73 24 31 47 64 50 72 4 8 16 29 26 45 30 46 61 110 61 125 0 7 6 21 13 29 35 42 77 253 77 382 0 85 -17 194 -42 264 -5 17 -12 41 -15 55 -9 50 -84 200 -126 255 -124 160 -272 296 -380 349 -40 20 -78 36 -85 36 -7 0 -23 5 -35 12 -48 27 -97 40 -202 53 -134 18 -212 19 -347 3 -87 -9 -118 -18 -196 -55 -50 -23 -94 -43 -97 -43 -3 0 -24 -12 -48 -27 -23 -15 -50 -32 -59 -38 -9 -5 -41 -27 -72 -47 -30 -21 -65 -38 -79 -38 -14 0 -73 32 -137 75 -62 41 -114 75 -116 75 -4 0 -206 149 -288 212 -29 23 -57 41 -86 55 -20 9 -165 114 -209 150 -19 15 -41 31 -50 36 -18 8 -29 15 -173 112 -58 39 -133 87 -166 107 -36 22 -73 55 -88 78 l-26 39 27 73 c18 48 31 108 37 173 10 113 3 310 -13 352 -6 15 -14 46 -19 68 -28 136 -127 311 -243 433 -57 59 -191 169 -227 185 -8 4 -28 16 -45 27 -42 27 -115 60 -132 60 -8 0 -24 5 -36 12 -58 31 -349 55 -457 38z m6420 -6944 c232 -34 356 -90 506 -229 73 -68 166 -187 202 -257 13 -25 26 -52 31 -60 31 -56 71 -178 71 -213 0 -14 5 -38 10 -53 6 -15 17 -95 26 -178 12 -126 13 -176 3 -306 -6 -85 -18 -170 -25 -189 -8 -18 -14 -47 -14 -63 0 -52 -58 -214 -94 -263 -12 -16 -39 -58 -59 -91 -72 -120 -315 -324 -386 -324 -10 0 -46 -13 -79 -30 l-61 -30 -224 0 c-246 0 -280 5 -396 63 -88 43 -152 87 -236 160 -65 56 -158 164 -178 206 -4 9 -16 30 -27 46 -74 116 -150 333 -150 431 0 21 -8 85 -17 141 -15 89 -16 112 -4 190 7 48 17 117 22 153 32 237 126 447 276 617 135 152 292 239 497 274 27 4 51 11 54 14 10 10 157 5 252 -9z"/> <path d="M3558 9851 c-60 -4 -92 -11 -103 -22 -14 -14 -16 -92 -20 -685 -7 -911 -12 -1174 -27 -1191 -9 -12 -16 -9 -42 15 -53 50 -166 131 -261 189 -23 14 -131 67 -190 93 -57 25 -106 40 -215 65 -53 12 -106 27 -117 34 -33 17 -615 15 -651 -2 -15 -8 -63 -21 -107 -31 -133 -30 -199 -47 -225 -61 -14 -7 -42 -16 -63 -20 -21 -4 -52 -17 -70 -29 -18 -12 -52 -30 -77 -41 -25 -10 -52 -25 -61 -32 -8 -7 -18 -13 -22 -13 -7 0 -127 -81 -182 -124 -94 -72 -247 -210 -297 -268 -60 -69 -148 -183 -148 -192 0 -3 -12 -24 -27 -48 -41 -63 -48 -75 -91 -158 -91 -173 -152 -303 -152 -324 0 -10 -6 -30 -14 -44 -8 -15 -21 -54 -29 -87 -8 -33 -21 -82 -28 -110 -7 -27 -15 -77 -18 -110 -4 -33 -12 -70 -19 -83 -30 -54 -24 -808 7 -927 6 -22 18 -76 26 -120 19 -93 41 -177 61 -223 8 -18 14 -39 14 -47 0 -8 6 -29 14 -47 118 -268 133 -300 181 -373 21 -33 48 -75 58 -94 56 -103 313 -368 469 -485 48 -36 90 -66 93 -66 3 0 24 -12 48 -27 66 -43 205 -108 262 -123 17 -5 55 -18 85 -30 30 -12 75 -26 100 -30 25 -5 58 -13 73 -19 16 -6 43 -11 60 -11 18 -1 43 -7 57 -15 20 -11 80 -14 298 -15 280 0 299 2 458 46 28 8 58 14 67 14 9 0 31 6 49 14 18 8 53 22 78 31 43 16 223 104 265 128 61 36 209 154 266 212 76 77 93 79 123 15 17 -36 18 -54 12 -188 -5 -118 -3 -152 7 -167 12 -16 34 -19 158 -26 79 -4 215 -8 303 -8 l158 -1 40 -43 c43 -45 88 -111 88 -126 0 -6 13 -29 29 -53 16 -24 39 -62 50 -84 12 -23 30 -49 41 -59 11 -10 29 -38 41 -63 13 -25 47 -82 77 -126 30 -45 58 -90 63 -101 9 -20 64 -104 154 -237 28 -40 52 -77 54 -83 2 -5 9 -17 16 -25 7 -8 27 -42 45 -75 18 -33 45 -76 59 -95 34 -45 112 -165 137 -210 10 -19 31 -52 47 -74 29 -42 35 -91 16 -129 -6 -12 -37 -59 -68 -105 -31 -46 -61 -92 -67 -103 -7 -11 -17 -26 -23 -32 -6 -6 -11 -19 -11 -28 0 -9 -13 -47 -30 -84 -16 -37 -30 -75 -30 -85 0 -11 -7 -45 -15 -77 -21 -80 -21 -336 1 -412 39 -143 79 -249 105 -282 16 -20 29 -40 29 -43 0 -19 97 -141 170 -214 92 -91 168 -145 280 -198 41 -19 83 -40 94 -45 10 -6 50 -19 90 -30 104 -27 428 -27 536 1 139 35 190 58 290 129 94 67 104 75 225 196 87 87 118 126 148 185 21 41 42 82 47 90 13 21 59 166 71 220 5 25 11 126 12 225 3 180 -1 213 -37 313 -18 49 -18 47 -79 170 -26 51 -47 102 -47 114 0 22 37 71 116 154 127 131 228 238 319 339 55 60 132 143 171 185 38 41 104 111 144 155 41 44 93 98 115 121 162 165 237 249 246 272 6 15 13 138 16 274 l6 247 -29 11 c-43 17 -69 5 -103 -47 -34 -53 -46 -67 -206 -233 -61 -63 -149 -158 -195 -210 -47 -52 -164 -176 -261 -275 -96 -99 -209 -216 -249 -260 -41 -44 -90 -97 -111 -117 -56 -56 -141 -158 -174 -207 -34 -50 -89 -91 -123 -91 -23 0 -70 17 -124 46 -14 8 -35 14 -45 14 -10 0 -27 6 -38 13 -22 14 -118 43 -175 51 -19 3 -55 10 -80 15 -98 22 -238 9 -360 -31 -56 -18 -123 -26 -147 -17 -22 8 -106 106 -124 144 -5 11 -18 34 -29 50 -11 17 -24 39 -30 50 -6 11 -19 34 -30 50 -11 17 -23 37 -27 45 -6 15 -69 113 -162 255 -54 83 -68 105 -77 125 -7 15 -75 122 -125 198 -16 23 -29 45 -29 48 0 4 -13 23 -30 44 -16 21 -30 40 -30 43 0 3 -17 32 -38 64 -21 32 -55 88 -75 125 l-37 67 0 2888 c0 1588 -4 2893 -8 2899 -24 37 -45 39 -537 40 -264 1 -519 -1 -567 -5z m-863 -2582 c85 -16 136 -34 225 -77 101 -48 125 -65 195 -136 116 -117 172 -193 218 -296 63 -139 96 -266 122 -460 19 -144 19 -186 0 -335 -33 -259 -73 -386 -168 -532 -15 -24 -27 -47 -27 -53 0 -14 -235 -248 -262 -261 -13 -5 -43 -21 -68 -34 -25 -14 -54 -25 -65 -25 -11 0 -29 -6 -40 -14 -47 -32 -148 -46 -330 -46 -182 0 -277 13 -337 46 -14 7 -34 14 -43 14 -10 0 -40 14 -67 30 -26 17 -51 30 -55 30 -16 0 -233 195 -233 210 0 4 -16 32 -36 61 -62 93 -145 283 -188 430 -22 75 -24 571 -2 640 7 24 21 71 31 104 10 33 23 74 30 90 63 146 95 209 136 265 59 81 168 189 234 232 68 45 180 98 205 98 12 0 31 5 43 12 29 16 237 38 312 33 33 -2 110 -14 170 -26z"/> <path d="M7790 8346 c-19 -8 -80 -21 -135 -31 -55 -9 -113 -21 -130 -27 -16 -5 -47 -13 -68 -18 -21 -4 -44 -13 -50 -19 -6 -6 -17 -11 -24 -11 -53 0 -316 -174 -433 -287 -25 -24 -50 -43 -56 -43 -6 0 -17 -7 -24 -15 -7 -8 -25 -15 -41 -15 -28 0 -29 1 -29 53 0 28 -2 108 -4 176 -5 140 -17 168 -76 184 -54 14 -966 2 -1017 -13 -83 -24 -76 193 -72 -2151 4 -1942 5 -2089 21 -2105 15 -15 58 -18 405 -22 213 -3 473 -1 576 3 178 7 189 8 202 29 12 19 16 210 21 1251 4 732 10 1246 16 1270 5 22 13 58 17 80 11 57 53 183 72 215 5 8 12 22 15 30 3 8 10 22 15 30 5 8 12 22 16 30 14 32 95 130 140 170 45 40 178 110 207 110 7 0 31 8 52 17 59 26 396 25 474 -1 30 -10 62 -22 70 -27 8 -5 30 -16 49 -26 19 -9 74 -55 123 -101 76 -73 94 -97 133 -178 25 -51 45 -101 45 -111 0 -10 7 -27 15 -37 8 -11 15 -35 15 -53 0 -19 7 -50 17 -71 15 -34 17 -151 21 -1310 4 -1205 5 -1274 22 -1295 l18 -22 569 0 c604 0 608 0 617 48 3 12 7 537 11 1167 3 630 8 1188 11 1240 9 160 62 337 148 488 15 26 99 115 138 147 61 50 138 92 257 141 64 26 415 28 476 2 22 -9 51 -19 66 -22 57 -12 173 -111 255 -218 24 -31 44 -62 44 -70 0 -7 7 -22 15 -32 8 -11 15 -30 15 -42 0 -12 11 -46 24 -76 13 -30 27 -77 31 -104 4 -27 13 -69 21 -92 12 -36 16 -259 23 -1294 8 -1109 11 -1252 25 -1266 13 -14 84 -16 585 -16 546 -1 570 0 590 18 l21 19 0 1296 c0 1108 -2 1316 -15 1436 -18 160 -42 312 -57 370 -6 22 -14 56 -19 75 -14 67 -109 316 -131 346 -4 6 -23 40 -42 76 -19 36 -58 98 -88 137 -53 72 -290 311 -307 311 -5 0 -32 15 -59 34 -28 18 -90 52 -139 75 -48 23 -100 48 -115 56 -14 8 -36 15 -48 15 -12 0 -31 5 -42 11 -12 7 -71 22 -132 34 -61 12 -124 28 -139 34 -44 17 -470 15 -527 -3 -50 -16 -211 -46 -250 -46 -14 -1 -36 -7 -50 -15 -14 -8 -34 -14 -45 -15 -10 0 -83 -31 -161 -70 -78 -38 -153 -75 -166 -80 -37 -17 -67 -36 -91 -57 -132 -114 -193 -174 -252 -246 -109 -132 -147 -134 -228 -14 -49 72 -184 211 -262 269 -68 50 -161 108 -174 108 -5 0 -14 7 -21 15 -7 8 -19 15 -26 15 -8 0 -42 13 -77 29 -34 16 -89 36 -122 46 -33 9 -73 21 -90 27 -16 5 -52 17 -80 26 -69 22 -552 28 -605 8z"/> </g> </svg>